<?xml version="1.0" encoding="utf-8"?>
<!-- Generator: Adobe Illustrator 22.0.0, SVG Export Plug-In . SVG Version: 6.00 Build 0)  -->
<svg version="1.1" id="Layer_1" xmlns="http://www.w3.org/2000/svg" xmlns:xlink="http://www.w3.org/1999/xlink" x="0px" y="0px"
	 width="1400px" height="980px" viewBox="0 0 1400 980" enable-background="new 0 0 1400 980" xml:space="preserve">
<rect y="0" fill="#565656" width="1400" height="980"/>
<g>
	<g>
		<linearGradient id="SVGID_1_" gradientUnits="userSpaceOnUse" x1="700" y1="89.0001" x2="700" y2="1137.7842">
			<stop  offset="0" style="stop-color:#FFFFFF"/>
			<stop  offset="1" style="stop-color:#D9D9D9"/>
		</linearGradient>
		<polygon fill="url(#SVGID_1_)" points="1272.8,85 1272.8,895 127.2,895 127.2,85 		"/>
		<g>
			<polygon fill="#DDDDDD" points="217,607 203.1,631.1 328.9,631.1 315,607 			"/>
			<polygon fill="#DDDDDD" points="285.4,555.8 266,522.1 246.6,555.8 			"/>
			<polygon fill="#DDDDDD" points="238.8,569.3 224.8,593.4 307.2,593.4 293.3,569.3 			"/>
			<polygon fill="#DDDDDD" points="350.7,668.8 336.7,644.7 195.3,644.7 181.3,668.8 			"/>
			<polygon fill="#DDDDDD" points="173.5,682.3 162.8,700.9 369.2,700.9 358.5,682.3 			"/>
		</g>
		<g>
			<polygon fill="#FAD02F" points="180.5,516.9 175,507.5 224.2,507.5 218.8,516.9 			"/>
			<polygon fill="#FAD02F" points="207.2,536.9 199.6,550.1 192.1,536.9 			"/>
			<polygon fill="#FAD02F" points="189,531.6 183.6,522.2 215.7,522.2 210.3,531.6 			"/>
			<polygon fill="#FAD02F" points="232.8,492.8 227.3,502.2 172,502.2 166.5,492.8 			"/>
			<polygon fill="#FAD02F" points="163.5,487.5 159.3,480.2 240,480.2 235.8,487.5 			"/>
		</g>
		<polygon fill="#24C2CB" points="201.9,559.2 144.5,658.5 259.3,658.5 		"/>
		<g>
			<polygon fill="#DDDDDD" points="1184,399.1 1170.1,423.3 1272.8,423.3 1272.8,399.1 			"/>
			<polygon fill="#DDDDDD" points="1213.6,347.9 1252.4,347.9 1233,314.3 			"/>
			<polygon fill="#DDDDDD" points="1260.3,361.5 1205.8,361.5 1191.8,385.6 1272.8,385.6 1272.8,383.2 			"/>
			<polygon fill="#DDDDDD" points="1148.3,460.9 1272.8,460.9 1272.8,436.8 1162.3,436.8 			"/>
			<polygon fill="#DDDDDD" points="1272.8,474.5 1140.5,474.5 1129.8,493 1272.8,493 			"/>
		</g>
		<g>
			<polygon fill="#FAD02F" points="1130.6,317.9 1119.3,298.3 1221.6,298.3 1210.3,317.9 			"/>
			<polygon fill="#FAD02F" points="1186.2,359.6 1170.4,386.9 1154.7,359.6 			"/>
			<polygon fill="#FAD02F" points="1148.3,348.6 1137,328.9 1203.9,328.9 1192.6,348.6 			"/>
			<polygon fill="#FAD02F" points="1239.3,267.7 1228,287.3 1112.9,287.3 1101.6,267.7 			"/>
			<polygon fill="#FAD02F" points="1095.2,256.6 1086.5,241.6 1254.4,241.6 1245.7,256.6 			"/>
		</g>
		<path fill="#C10000" d="M1241.8,864H158.2V116h1083.6V864z M176.2,846h1047.6V134H176.2V846z"/>
		<polygon fill="#FAD02F" points="127.2,895 127.2,635 303,895 		"/>
		<polygon fill="#E53D36" points="1272.8,85 1272.8,371 1117,85 		"/>
		<g>
			<polygon fill="#E53D36" points="204.6,781 193.3,761.4 295.6,761.4 284.3,781 			"/>
			<polygon fill="#E53D36" points="260.2,822.7 244.4,850.1 228.7,822.7 			"/>
			<polygon fill="#E53D36" points="222.3,811.7 211,792.1 277.9,792.1 266.6,811.7 			"/>
			<polygon fill="#E53D36" points="313.3,730.8 302,750.4 186.9,750.4 175.6,730.8 			"/>
			<polygon fill="#E53D36" points="169.2,719.8 160.5,704.7 328.4,704.7 319.7,719.8 			"/>
		</g>
		<g>
			<polygon fill="#E53D36" points="1043.5,235.8 1039.2,228.3 1078.1,228.3 1073.8,235.8 			"/>
			<polygon fill="#E53D36" points="1064.6,251.6 1058.6,262 1052.7,251.6 			"/>
			<polygon fill="#E53D36" points="1050.2,247.4 1045.9,239.9 1071.4,239.9 1067.1,247.4 			"/>
			<polygon fill="#E53D36" points="1084.8,216.7 1080.5,224.1 1036.8,224.1 1032.5,216.7 			"/>
			<polygon fill="#E53D36" points="1030.1,212.5 1026.8,206.8 1090.5,206.8 1087.2,212.5 			"/>
		</g>
		<polygon fill="#24C2CB" points="1086.4,93.2 1029,192.5 1143.8,192.5 		"/>
		<polygon fill="#24C2CB" points="1160,459.2 1124.3,521.1 1195.8,521.1 		"/>
		<circle fill="#FAD02F" cx="169.1" cy="541.6" r="9.2"/>
		<circle fill="#E53D36" cx="304.4" cy="683.6" r="9.2"/>
		<circle fill="#24C2CB" cx="352.8" cy="825.6" r="9.2"/>
		<circle fill="#22395C" cx="221.7" cy="857.3" r="9.2"/>
		<circle fill="#FAD02F" cx="1144.5" cy="207.6" r="9.2"/>
		<circle fill="#24C2CB" cx="1195.5" cy="419.7" r="9.2"/>
		<circle fill="#22395C" cx="1101.8" cy="340.3" r="9.2"/>
		<circle fill="#FAD02F" cx="1209.7" cy="130.6" r="9.2"/>
		<circle fill="#E53D36" cx="997.5" cy="155.8" r="9.2"/>
		<path fill="#22395C" d="M165.5,803l-19.2-11.1v-22.2l19.2-11.1l19.2,11.1v22.2L165.5,803z M148.3,790.7l17.2,9.9l17.2-9.9v-19.9
			l-17.2-9.9l-17.2,9.9V790.7z"/>
		<path fill="#E53D36" d="M261,539.6l-19.2-11.1v-22.2l19.2-11.1l19.2,11.1v22.2L261,539.6z M243.8,527.3l17.2,9.9l17.2-9.9v-19.9
			l-17.2-9.9l-17.2,9.9V527.3z"/>
		<path fill="#FAD02F" d="M162,457.6l-25.1-14.5v-29l25.1-14.5l25.1,14.5v29L162,457.6z M138.1,442.3l23.8,13.8l23.8-13.8v-27.5
			L162,401.1l-23.8,13.8V442.3z"/>
		<path fill="#24C2CB" d="M306.8,838.7l-19.2-11.1v-22.2l19.2-11.1l19.2,11.1v22.2L306.8,838.7z M289.6,826.4l17.2,9.9l17.2-9.9
			v-19.9l-17.2-9.9l-17.2,9.9V826.4z"/>
		<path fill="#FAD02F" d="M148.8,602.7l-19.2-11.1v-22.2l19.2-11.1l19.2,11.1v22.2L148.8,602.7z M131.6,590.4l17.2,9.9l17.2-9.9
			v-19.9l-17.2-9.9l-17.2,9.9V590.4z"/>
		<path fill="#FAD02F" d="M1062.8,322.7l-19.2-11.1v-22.2l19.2-11.1l19.2,11.1v22.2L1062.8,322.7z M1045.6,310.4l17.2,9.9l17.2-9.9
			v-19.9l-17.2-9.9l-17.2,9.9V310.4z"/>
		<path fill="#E53D36" d="M1133.4,432.7l-28-16.2v-32.4l28-16.2l28,16.2v32.4L1133.4,432.7z M1108.3,414.8l25.1,14.5l25.1-14.5v-29
			l-25.1-14.5l-25.1,14.5V414.8z"/>
		<path fill="#FAD02F" d="M1239.3,224.9l-28-16.2v-32.4l28-16.2l28,16.2v32.4L1239.3,224.9z M1214.1,207l25.1,14.5l25.1-14.5v-29
			l-25.1-14.5l-25.1,14.5V207z"/>
		<path fill="#24C2CB" d="M1228.7,540.8l-28-16.2v-32.4l28-16.2l28,16.2v32.4L1228.7,540.8z M1203.5,522.9l25.1,14.5l25.1-14.5v-29
			l-25.1-14.5l-25.1,14.5V522.9z"/>
		<path fill="#E53D36" d="M1097,163.1l-11.8-6.8v-13.6l11.8-6.8l11.8,6.8v13.6L1097,163.1z M1086.4,155.5l10.6,6.1l10.6-6.1v-12.2
			l-10.6-6.1l-10.6,6.1V155.5z"/>
	</g>
	<g>
		<g>
			<text transform="matrix(1 0 0 1 489.8142 266.9961)"><tspan x="0" y="0" fill="#22395C" font-family="'AbrilFatface-Regular'" font-size="64.3168px">CE</tspan><tspan x="84.5" y="0" fill="#22395C" font-family="'AbrilFatface-Regular'" font-size="64.3168px" letter-spacing="-3">R</tspan><tspan x="127.3" y="0" fill="#22395C" font-family="'AbrilFatface-Regular'" font-size="64.3168px">TIFI</tspan><tspan x="255" y="0" fill="#22395C" font-family="'AbrilFatface-Regular'" font-size="64.3168px" letter-spacing="-1">C</tspan><tspan x="298.1" y="0" fill="#22395C" font-family="'AbrilFatface-Regular'" font-size="64.3168px" letter-spacing="-6">A</tspan><tspan x="336.3" y="0" fill="#22395C" font-family="'AbrilFatface-Regular'" font-size="64.3168px">TE</tspan></text>
		</g>
		<g>
			<text transform="matrix(1 0 0 1 613.3693 301.4846)" fill="#22395C" font-family="'OpenSans-Bold'" font-size="22.0795px">of Achievement</text>
		</g>
		<text transform="matrix(1 0 0 1 495.7589 383.4377)" fill="#22395C" font-family="'OpenSans'" font-size="22.0795px">This Certificate is Proudly Presented to :</text>
		<text id="name" transform="matrix(1 0 0 1 487.7768 487.6345)" fill="#22395C" font-family="'GreatVibes-Regular'" font-size="83.7635px">%name%</text>
		<rect x="365.2" y="542.4" fill="none" width="664.6" height="63.2"/>
		<text transform="matrix(1 0 0 1 368.536 553.5154)"><tspan x="0" y="0" fill="#22395C" font-family="'OpenSans'" font-size="14.5864px">Lorem ipsum dolor sit amet, consectetuer adipiscing elit, sed diam nonummy nibh euismod tinci</tspan><tspan x="653.2" y="0" fill="#22395C" font-family="'OpenSans'" font-size="14.5864px">-</tspan><tspan x="0.6" y="17.5" fill="#22395C" font-family="'OpenSans'" font-size="14.5864px">dunt ut laoreet dolore magna aliquam erat volutpat. Ut wisi enim ad minim veniam, quis nostrud </tspan><tspan x="44.9" y="35" fill="#22395C" font-family="'OpenSans'" font-size="14.5864px">exerci tation ullamcorper suscipit lobortis nisl ut aliquip ex ea commodo consequat.</tspan></text>
		<g>
			<rect x="378.1" y="734.1" fill="#22395C" width="257.7" height="0.8"/>
			<rect x="764.2" y="734.1" fill="#22395C" width="257.7" height="0.8"/>
			<g>
				
					<text transform="matrix(1 0 0 1 472.142 770.8279)" fill="#22395C" font-family="'OpenSans'" font-size="23.9305px" letter-spacing="2">DATE</text>
			</g>
			<g>
					<text transform="matrix(1 0 0 1 780.4589 720.8279)" fill="#22395C" font-family="'OpenSans'" font-size="23.9305px" letter-spacing="2">SIGNATURE Holder</text>
					<text transform="matrix(1 0 0 1 817.4589 770.8279)" fill="#22395C" font-family="'OpenSans'" font-size="23.9305px" letter-spacing="2">SIGNATURE</text>
			</g>
		</g>
		<path fill="#22395C" d="M589.8,297.6h-97.6c-1.3,0-2.4-1.1-2.4-2.4l0,0c0-1.3,1.1-2.4,2.4-2.4h97.6c1.3,0,2.4,1.1,2.4,2.4l0,0
			C592.2,296.6,591.1,297.6,589.8,297.6z"/>
		<path fill="#22395C" d="M907.8,297.6h-97.6c-1.3,0-2.4-1.1-2.4-2.4l0,0c0-1.3,1.1-2.4,2.4-2.4h97.6c1.3,0,2.4,1.1,2.4,2.4l0,0
			C910.2,296.6,909.1,297.6,907.8,297.6z"/>
	</g>
</g>
</svg>
