<?xml version="1.0" encoding="UTF-8" standalone="no"?>
<!DOCTYPE svg PUBLIC "-//W3C//DTD SVG 1.1//EN" "http://www.w3.org/Graphics/SVG/1.1/DTD/svg11.dtd">
<svg xmlns="http://www.w3.org/2000/svg" version="1.1" viewBox="0.00 0.00 48.00 107.00">
<path fill="#0773c9" d="
  M 17.32 89.80
  Q 28.27 96.54 36.86 85.84
  C 38.29 84.06 38.66 79.31 38.68 76.39
  Q 38.91 50.30 38.85 24.22
  C 38.84 19.29 37.42 15.77 33.92 12.69
  C 32.13 11.12 29.52 10.49 27.27 9.50
  Q 26.71 9.26 27.32 9.32
  C 40.04 10.77 43.03 18.32 43.01 29.89
  Q 42.98 53.87 43.00 77.82
  C 43.02 98.76 15.77 104.33 8.37 85.02
  Q 7.05 81.57 7.10 75.16
  Q 7.28 49.71 7.51 24.24
  C 7.56 18.95 9.47 12.20 14.26 8.92
  C 16.28 7.54 18.59 8.08 20.99 7.75
  Q 21.60 7.67 21.71 8.24
  Q 21.79 8.64 21.41 8.79
  L 20.55 9.14
  A 0.44 0.44 0.0 0 0 20.70 9.99
  L 21.60 10.03
  Q 23.24 10.11 21.76 10.82
  L 14.75 14.21
  A 1.43 1.41 2.0 0 0 14.13 14.78
  Q 11.21 19.69 11.26 24.75
  C 11.46 43.76 10.87 63.04 11.99 82.00
  C 12.11 84.13 15.09 88.43 17.32 89.80
  Z"
/>
<path fill="#f2a72b" d="
  M 14.53 21.56
  C 13.72 16.39 20.77 12.53 25.06 12.60
  Q 31.39 12.70 34.78 18.63
  Q 35.54 19.95 35.21 20.95
  A 1.13 1.13 0.0 0 1 33.05 20.92
  Q 32.35 18.52 30.25 16.98
  A 0.56 0.56 0.0 0 0 29.41 17.18
  Q 28.74 18.49 28.80 20.08
  A 2.21 2.21 0.0 0 1 26.19 22.33
  Q 20.75 21.32 15.24 22.09
  A 0.64 0.64 0.0 0 1 14.53 21.56
  Z
  M 25.8200 18.7961
  A 1.86 0.79 93.7 0 0 26.7284 16.9910
  A 1.86 0.79 93.7 0 0 26.0600 15.0839
  A 1.86 0.79 93.7 0 0 25.1516 16.8890
  A 1.86 0.79 93.7 0 0 25.8200 18.7961
  Z
  M 19.00 18.44
  L 19.78 19.50
  A 0.29 0.29 0.0 0 0 20.18 19.57
  L 21.39 18.68
  A 2.21 0.46 -36.2 0 0 22.90 17.00
  L 22.32 16.21
  A 2.21 0.46 -36.2 0 0 20.27 17.15
  L 19.06 18.03
  A 0.29 0.29 0.0 0 0 19.00 18.44
  Z"
/>
<path fill="#f2a72b" d="
  M 17.25 29.94
  L 17.25 35.77
  A 1.03 1.01 -2.1 0 1 16.30 36.78
  Q 15.29 36.84 15.10 35.78
  Q 14.48 32.33 14.78 27.69
  A 1.59 1.58 -1.5 0 1 16.19 26.21
  Q 23.48 25.40 31.25 26.31
  C 32.00 26.39 33.70 26.01 34.73 26.37
  Q 35.26 26.56 35.25 27.12
  C 35.21 29.22 35.87 33.34 35.38 35.11
  Q 34.87 36.96 33.15 35.32
  A 1.34 1.31 -69.2 0 1 32.74 34.38
  L 32.63 29.39
  Q 32.61 28.67 31.89 28.70
  L 17.87 29.29
  A 0.65 0.65 0.0 0 0 17.25 29.94
  Z"
/>
<path fill="#e9ac35" d="
  M 30.9977 41.8448
  A 1.78 1.78 0.0 0 1 29.1961 43.6029
  L 20.4568 43.4962
  A 1.78 1.78 0.0 0 1 18.6987 41.6945
  L 18.8023 33.2152
  A 1.78 1.78 0.0 0 1 20.6039 31.4571
  L 29.3432 31.5638
  A 1.78 1.78 0.0 0 1 31.1013 33.3655
  L 30.9977 41.8448
  Z
  M 28.0566 35.8505
  A 1.66 1.66 0.0 0 0 26.2715 34.3258
  L 23.3805 34.5534
  A 1.66 1.66 0.0 0 0 21.8558 36.3385
  L 22.0834 39.2295
  A 1.66 1.66 0.0 0 0 23.8685 40.7542
  L 26.7595 40.5266
  A 1.66 1.66 0.0 0 0 28.2842 38.7415
  L 28.0566 35.8505
  Z"
/>
<path fill="#f2a72b" d="
  M 14.76 39.34
  A 1.04 1.03 6.8 0 1 16.04 38.34
  C 18.71 38.98 17.05 43.21 17.58 45.26
  A 0.97 0.97 0.0 0 0 18.82 45.94
  C 20.53 45.38 22.15 46.28 23.72 46.27
  C 26.22 46.24 30.97 46.96 32.70 44.83
  Q 33.00 44.47 33.00 44.01
  L 33.00 39.73
  Q 33.00 39.18 33.53 39.05
  L 34.74 38.74
  A 0.51 0.51 0.0 0 1 35.37 39.24
  L 35.44 47.60
  A 1.51 1.51 0.0 0 1 33.92 49.12
  C 27.99 49.09 21.32 49.73 15.26 48.83
  A 0.61 0.59 -86.2 0 1 14.75 48.23
  L 14.76 39.34
  Z"
/>
<path fill="#e9ac35" d="
  M 21.10 59.58
  C 24.05 58.51 26.84 60.50 30.31 59.57
  Q 30.80 59.44 31.29 59.57
  L 34.25 60.40
  A 1.33 1.33 0.0 0 1 34.60 62.81
  C 33.11 63.75 31.34 62.99 30.06 63.03
  C 25.61 63.16 20.65 63.79 16.29 62.65
  Q 15.84 62.53 15.64 62.11
  Q 13.29 57.10 16.67 52.78
  A 1.08 1.06 -69.5 0 1 17.55 52.37
  L 24.03 52.54
  Q 24.67 52.56 25.16 52.96
  Q 26.13 53.76 27.21 53.18
  Q 27.75 52.89 27.75 53.50
  L 27.75 53.99
  Q 27.75 54.25 27.52 54.36
  Q 23.89 56.10 19.95 55.34
  Q 19.39 55.23 19.09 55.72
  L 17.77 57.83
  Q 17.48 58.31 17.96 58.59
  L 18.21 58.74
  A 0.21 0.21 0.0 0 0 18.52 58.52
  Q 18.22 57.10 19.55 56.52
  A 1.62 1.29 -81.2 0 1 20.93 58.93
  L 20.78 59.18
  Q 20.38 59.84 21.10 59.58
  Z"
/>
<path fill="#e9ac35" d="
  M 17.20 75.64
  C 14.65 85.17 28.66 91.40 32.64 81.26
  C 34.80 75.74 32.70 73.11 28.17 70.32
  Q 27.20 69.72 26.83 69.18
  Q 26.11 68.15 26.48 67.34
  A 1.75 1.75 0.0 0 1 29.04 66.61
  C 31.39 68.18 34.01 69.22 35.15 71.89
  C 36.49 75.03 37.20 78.23 35.95 81.55
  C 29.85 97.77 5.91 86.25 16.17 69.92
  Q 16.43 69.50 16.48 69.01
  C 16.70 66.98 20.85 66.97 22.23 67.00
  A 1.12 1.11 23.4 0 1 22.99 68.91
  C 20.91 70.94 17.95 72.82 17.20 75.64
  Z"
/>
<path fill="#f2a72b" d="
  M 30.27 78.05
  A 5.25 5.25 0.0 0 1 25.02 83.30
  A 5.25 5.25 0.0 0 1 19.77 78.05
  A 5.25 5.25 0.0 0 1 25.02 72.80
  A 5.25 5.25 0.0 0 1 30.27 78.05
  Z
  M 27.1993 78.7963
  A 1.24 1.24 0.0 0 0 26.5680 77.1602
  L 24.8857 76.4148
  A 1.24 1.24 0.0 0 0 23.2497 77.0461
  L 22.8607 77.9237
  A 1.24 1.24 0.0 0 0 23.4920 79.5598
  L 25.1743 80.3052
  A 1.24 1.24 0.0 0 0 26.8103 79.6739
  L 27.1993 78.7963
  Z"
/>
<rect fill="#0773c9" x="-11.12" y="-2.11" transform="translate(25.16,101.15) rotate(0.2)" width="22.24" height="4.22" rx="1.84"/>
</svg>
